<?xml version="1.0" encoding="utf-8"?><svg viewBox="0 0 13 16" xmlns="http://www.w3.org/2000/svg" xmlns:xlink="http://www.w3.org/1999/xlink"><style>:root>svg{display:none}:root>svg:target{display:block}</style><svg viewBox="0 0 13 8" id="arrow-down" xmlns="http://www.w3.org/2000/svg"><path d="M1.175 1l5.5 5 5.5-5" stroke-width="2"/></svg><svg viewBox="0 0 12 16" id="phone" xmlns="http://www.w3.org/2000/svg"><path d="M0 2C0 .897.911 0 2.032 0h7.11c1.122 0 2.033.897 2.033 2v12c0 1.103-.912 2-2.032 2H2.032C.912 16 0 15.103 0 14V2zm6.603 12c0-.553-.454-1-1.016-1s-1.016.447-1.016 1c0 .553.454 1 1.016 1s1.016-.447 1.016-1zm2.54-12H2.032v10h7.11V2z"/></svg></svg>